<svg xmlns="http://www.w3.org/2000/svg" version="1.1" xmlns:xlink="http://www.w3.org/1999/xlink" xmlns:svgjs="http://svgjs.dev/svgjs" width="100%" height="100%" viewBox="0 0 1000 600"><rect width="1000" height="600" x="0" y="0" fill="#533549"/><g><circle r="166.66666666666666" cx="326.73867289225257" cy="348.9608488657052" fill="#f6b042" transform="matrix(0.7808987885773726,0,0,0.7808987885773726,0,27.496889509155864)"/><path d="M320.10342064795435 309.1494067698268L320.10342064795435 309.1494067698268L327.6360530110687 342.8966875013247Q336.3380109756774 341.564200187994 342.6197368813793 340.4492618237786Q348.87426916844174 339.36151707820244 354.44896098951915 338.16499785806883Q360.05084642923595 336.9684786379351 366.84925108908647 335.6359913246044L366.84925108908647 335.6359913246044Q368.9431597243204 338.790451086775 369.8405491394207 342.8151066454065Q370.7651321731604 346.81256858539865 370.7651321731604 350.7284496694726L370.7651321731604 350.7284496694726Q370.7651321731604 356.84701386333796 369.13351505479625 362.1497694980214Q367.50189793643216 367.47971875134425 365.89747443670745 369.2744975815447L365.89747443670745 369.2744975815447Q364.1570828437857 369.57362738657815 362.38949763222456 369.65520824249637Q360.6219124206634 369.7639827170539 358.7999399718235 369.7639827170539L358.7999399718235 369.7639827170539Q351.26730760870913 369.7639827170539 343.70748162695537 367.61568684454124Q336.1476556452016 365.46739097202845 329.3764446039905 361.63309074387274L329.3764446039905 361.63309074387274L328.8869594684812 362.12257587938205Q332.4221298916035 372.0482466827637 334.9511364250679 382.24585367253957Q337.48014295853227 392.4162670436759 336.44678545023504 403.5112634485519L336.44678545023504 403.5112634485519Q335.9573003147258 409.6298276424174 330.76331915459997 414.25274281111575Q325.54214437583477 418.90285159845354 318.60777162278725 421.43185813191786Q311.67339886973974 423.9608646653823 305.9355453368259 423.9608646653823L305.9355453368259 423.9608646653823Q299.92575561751806 423.9608646653823 294.70458083875286 420.86079214049045Q289.5105996786271 417.7607196155986 285.6219122131926 413.40974063329423Q281.76041836639746 409.0587616509899 279.8568650616393 405.41481675331005L279.8568650616393 405.41481675331005L286.05701011142304 392.33468618775765L308.3285837770933 392.33468618775765Q300.7687577953395 369.00256139515074 295.62916387249254 353.28464982157635Q290.46237633100617 337.5395446293625 287.2535293315567 327.80422915645664Q284.04468233210724 318.0417200649113 282.33148435782493 312.79335166750667Q280.6182863835426 307.5177896514627 279.88405868027877 305.2335256857529Q279.1770245956543 302.9492617200431 279.04105650245725 302.0790659235823Q278.87789479062087 301.2088701271214 278.79631393470265 300.1755126188241L278.79631393470265 300.1755126188241Q278.79631393470265 294.2473037554345 281.62445027320047 286.76905862959893Q284.4253929930589 279.3180071224027 288.91234006856024 274.7222855723438L288.91234006856024 274.7222855723438L331.85106390017603 283.7233733419859L365.70711910623163 273.9608642504405Q370.27564703765114 276.35390269070797 372.4783301474427 282.22772431681875Q374.68101325723427 288.12873956156903 374.68101325723427 294.8999506027801L374.68101325723427 294.8999506027801Q374.68101325723427 302.16064677950044 372.2063939610487 309.0678259139086Q369.7045810462237 315.9478114296773 364.8369233097707 319.2926265223238L364.8369233097707 319.2926265223238Q353.9322822353705 317.66100940395967 342.5653496441005 314.9688411586589Q331.171223434191 312.30386653199747 320.10342064795435 309.1494067698268Z " fill="#533549" transform="matrix(0.7808987885773726,0,0,0.7808987885773726,0,27.496889509155864)"/><path d="M602.4299414485455 394.36354823160974L602.4299414485455 394.36354823160974Q600.7386662807603 394.36354823160974 599.2084649384784 393.73938715778417Q597.6782635961965 393.0950918557708 596.2688676230422 392.10851467456274L596.2688676230422 392.10851467456274Q593.7923575559281 390.75952138597216 591.4567870861293 389.1689173591265Q589.1212166163308 387.57831333228086 587.3494045357938 386.2293200436903L587.3494045357938 386.2293200436903Q584.9534313814314 384.3165683658379 583.9265857438476 382.72596433899224Q582.8997401062636 381.1353603121466 582.6178609116328 379.36354823160974L582.6178609116328 379.36354823160974Q582.3359817170019 373.90717239268355 581.8930286968676 366.01455494301905Q581.4702099049214 358.12193749335466 580.9064515156596 349.56489051348893L580.9064515156596 349.56489051348893Q580.2017535290825 338.0279777618111 579.2151763478744 327.29643413765Q578.2285991666663 316.5850247416768 577.4433642673374 310.0615348087909L577.4433642673374 310.0615348087909Q577.2218877572703 308.2293200436902 576.9802770190153 305.47093078194524Q576.7386662807603 302.71254152020026 576.7386662807603 301.92730662087143L576.7386662807603 301.92730662087143Q577.6648407774045 298.6051589698647 580.8661830592838 294.8803267550996Q584.0876595693509 291.1756287685224 588.4567870861293 288.0145549430191Q592.80578037472 284.8736153457036 596.9735656096194 283.3031455470459L596.9735656096194 283.3031455470459Q598.6044380928408 283.524622057113 601.6849750055925 284.3299911846298Q604.7655119183441 285.15549454033453 608.3494045357938 286.2024744061063Q611.9131629250556 287.26958850006605 615.0339682941832 288.3769710504016Q618.1346394351227 289.4642193725493 619.7655119183441 290.3098569564419L619.7655119183441 290.3098569564419L644.0473911129751 288.11522608395865Q645.4567870861293 294.84005829872376 644.8326260123039 300.6185817886567Q644.1883307102905 306.3769710504016 642.3963844015657 310.8065012517439Q640.584303864653 315.23603145308624 638.4903441331093 317.99442071483116Q636.3963844015656 320.7528099765761 634.9265857438476 321.4575079631533L634.9265857438476 321.4575079631533Q631.7252434619683 320.7528099765761 626.8930286968676 318.9205952114755Q622.040679703579 317.06824621818686 617.1077937975389 314.3903938691936Q612.1950421196865 311.69240729201243 608.6514179586126 308.57160192288484L608.6514179586126 308.57160192288484L606.9601427908274 310.14207172154255Q607.4634984955254 315.29643413765 607.3225588982099 323.30985695644193Q607.1816193008946 331.303145547046 606.6379951398206 340.18234017791843Q606.1145052069347 349.0615348087909 605.4299414485455 357.0749576275828Q604.7655119183441 365.06824621818686 604.1212166163308 370.303145547046L604.1212166163308 370.303145547046L604.060813931767 372.9205952114755L604.2621562136461 373.0011321242271Q605.550746817673 373.0615348087909 608.1883307102904 371.3299911846298Q610.8460488310958 369.59844756046874 613.9668542002233 367.0816690369788Q617.0876595693509 364.56489051348893 620.0473911129751 361.9877093054352Q623.0272568847871 359.4105280973815 624.9400085626395 357.77965561416005L624.9400085626395 357.77965561416005Q622.1010823881428 349.34341400342174 621.3561159451898 343.303145547046Q620.6111495022368 337.2427428624822 620.6111495022368 335.26958850006605L620.6111495022368 335.26958850006605Q621.819203193512 334.6252931980527 625.1212166163308 333.98099789603924Q628.4030958109616 333.3568368222138 632.5104783612973 333.3568368222138L632.5104783612973 333.3568368222138Q645.0339682941832 333.3568368222138 652.1212166163308 341.99442071483116L652.1212166163308 341.99442071483116L645.1749078914985 357.6387160168446L649.7051092337805 391.32327977523386Q648.1547736633106 392.45079655375736 645.1547736633106 393.41723950677743Q642.1346394351227 394.36354823160974 639.1749078914985 394.36354823160974L639.1749078914985 394.36354823160974Q634.785646146532 394.303145547046 630.5373239988811 393.23603145308624Q626.2890018512301 392.1689173591265 623.5910152740488 389.5514676946969L623.5910152740488 389.5514676946969Q623.9534313814314 384.96086366785136 624.6983978243844 380.2091858155023Q625.4433642673374 375.4776421913412 626.1480622539146 369.1756287685225L626.1480622539146 369.1756287685225L624.4366528579416 368.3903938691936Q623.0272568847871 371.65213883563655 620.6916864149885 376.0816690369788Q618.3561159451898 380.49106501013324 615.4165186297536 384.6789844732204Q612.4769213143173 388.8467697081198 609.1547736633106 391.6051589698647Q605.8326260123039 394.36354823160974 602.4299414485455 394.36354823160974ZM677.4702099049214 394.36354823160974L677.4702099049214 394.36354823160974Q674.9735656096193 394.36354823160974 671.5910152740488 392.9138838020795Q668.1883307102905 391.4642193725493 664.9668542002233 389.0279777618111Q661.7453776901563 386.5917361510728 659.6312837304248 383.67227306382443Q657.4970555425052 380.7729442047641 657.4970555425052 377.9541522584553L657.4970555425052 377.9541522584553Q657.4970555425052 376.9474408490593 657.6379951398206 376.2427428624822Q657.7789347371362 375.538044875905 658.3829615827736 373.8467697081198Q658.9869884284113 372.1353603121466 660.3359817170019 368.4306623255695Q661.6849750055925 364.70583011080436 664.1614850727066 357.77965561416005L664.1614850727066 357.77965561416005L654.8796058780757 320.8937495738916Q657.0138340659952 318.276299909462 660.6581293680086 315.94072943966336Q664.3024246700221 313.6051589698647 668.7118206431763 312.1152260839587Q673.1413508445187 310.62529319805265 677.5306125894851 310.62529319805265L677.5306125894851 310.62529319805265Q680.7923575559281 310.62529319805265 683.7520890995522 311.5917361510728Q686.7319548713643 312.538044875905 689.2084649384784 314.7326757483882L689.2084649384784 314.7326757483882Q689.0071226565992 315.79978984234793 688.564169636465 319.7662327953681Q688.1413508445187 323.7326757483882 687.5171897706932 329.45079655375736Q686.8728944686798 335.1890515873144 686.067525341163 341.7125415202003Q685.2420219854582 348.21589722489824 684.2151763478744 354.37697105040166Q683.1883307102905 360.538044875905 682.060813931767 365.2091858155023L682.060813931767 365.2091858155023L680.7118206431765 370.72596433899224L691.3426931263979 365.99442071483116L696.9198743344516 374.83334688932786Q695.4500756767335 378.29643413765 692.6514179586127 382.90717239268355Q689.8527602404919 387.4977764195292 685.9869884284113 390.94072943966336Q682.1413508445187 394.36354823160974 677.4702099049214 394.36354823160974ZM674.4098072203576 304.6856958826164L674.4098072203576 304.6856958826164Q671.0272568847871 304.4642193725493 667.7252434619684 302.81321266113986Q664.4433642673374 301.14207172154255 662.067525341163 298.8467697081197Q659.6916864149885 296.55146769469695 659.0473911129751 294.4172395067775L659.0473911129751 294.4172395067775Q661.1010823881428 289.4038166879855 662.3896729921697 286.1823401779184Q663.6581293680086 282.9608636678513 664.6849750055925 280.22260863429426Q665.7118206431763 277.5044878289251 666.7789347371362 273.9608636678513L666.7789347371362 273.9608636678513Q671.1681964821026 273.9608636678513 676.2218877572703 275.3098569564419Q681.2755790324381 276.6588502450325 685.32255889821 279.9809978960392Q689.3494045357938 283.3031455470459 690.6178609116328 289.32327977523386L690.6178609116328 289.32327977523386Q688.564169636465 294.2158972248983 683.6916864149885 298.4843536007372Q678.7990689653241 302.77294420476403 674.4098072203576 304.6856958826164ZM709.3829615827738 423.96086366785136L709.3829615827738 423.96086366785136Q703.0809481599549 422.7528099765761 699.4366528579415 419.24945427187816Q695.7923575559281 415.7460985671801 694.0205454753911 413.3501254128177L694.0205454753911 413.3501254128177Q693.9601427908274 409.303145547046 694.6245723210287 406.68569588261636Q695.2890018512301 404.06824621818686 696.4366528579415 400.88703816449555L696.4366528579415 400.88703816449555L710.7923575559281 403.0816690369788Q709.8863172874717 393.59844756046874 708.315847488814 381.9205952114755Q706.7655119183441 370.2226086342942 704.9936998378073 358.16220594973055Q703.2218877572703 346.1018032651668 701.5910152740489 335.1286489027506Q699.9802770190153 324.1554945403345 698.9534313814314 315.8400582987238Q697.9265857438476 307.52462205711305 697.9265857438476 303.6185817886567L697.9265857438476 303.6185817886567Q698.3494045357938 302.6320046074486 699.8594716498878 299.6924072920124Q701.3896729921697 296.75280997657615 704.329270307606 292.92730662087143Q707.2688676230422 289.1219374933546 711.8997401062636 285.31656836583784Q716.5306125894851 281.531333466509 723.2554448042503 278.77294420476403L723.2554448042503 278.77294420476403Q731.8930286968678 280.76623279536807 738.0138340659952 281.6521388356365Q744.1346394351227 282.538044875905 749.812491784116 281.95415225845534L749.812491784116 281.95415225845534Q750.7990689653241 283.9474408490593 750.6178609116328 287.2293200436902Q750.4366528579415 290.531333466509 749.4098072203576 294.2158972248983Q748.3829615827738 297.90046098328753 746.7520890995522 301.0816690369788Q745.1212166163307 304.2628770906701 743.2890018512301 305.95415225845534L743.2890018512301 305.95415225845534Q737.1279280257268 305.531333466509 733.7655119183441 304.02126635241507Q730.4030958109616 302.4910650101332 728.5708810458609 300.39710527858955Q726.7185320525724 298.3232797752338 725.2487333948543 296.26958850006605L725.2487333948543 296.26958850006605L726.6581293680086 320.69240729201243L745.060813931767 315.23603145308624Q746.7520890995522 317.85348111751574 747.0339682941831 321.7192529295963Q747.315847488814 325.56489051348893 746.6916864149885 329.5716019228849Q746.0473911129751 333.55817910409297 745.060813931767 336.75952138597216Q744.074236750559 339.94072943966336 743.2285991666663 341.2091858155023L743.2285991666663 341.2091858155023Q738.8393374217 341.3501254128178 734.5910152740489 339.75952138597216Q730.3426931263979 338.1689173591265 727.9265857438476 336.9004609832876L727.9265857438476 336.9004609832876Q728.6312837304247 349.6252931980527 729.1749078914986 362.793078432952Q729.6983978243845 375.96086366785136 729.9198743344516 387.7192529295963Q730.1212166163307 399.4575079631533 729.7789347371362 408.0950918557708L729.7789347371362 408.0950918557708Q729.1346394351227 412.14207172154255 725.7722233277401 415.68569588261636Q722.4098072203576 419.2091858155023 717.9400085626395 421.4440851443614Q713.4903441331094 423.6789844732204 709.3829615827738 423.96086366785136ZM781.80578037472 394.36354823160974L781.80578037472 394.36354823160974Q778.5440354082771 394.36354823160974 774.5373239988811 392.7326757483882Q770.550746817673 391.12193749335466 766.8661830592838 388.4239509161735Q763.1816193008946 385.72596433899224 760.7655119183441 382.48435360073717Q758.3695387639818 379.2226086342942 758.2285991666663 375.96086366785136L758.2285991666663 375.96086366785136Q758.2285991666663 375.05482339939493 758.550746817673 373.303145547046Q758.8728944686798 371.5716019228849 759.8594716498878 367.92730662087143Q760.8460488310959 364.283011318858 762.8192031935121 357.8400582987238L762.8192031935121 357.8400582987238L759.295713260626 332.5111992383211L752.4903441331093 332.08838044637486Q751.4232300391495 329.1689173591265 751.1816193008946 325.36354823160974Q750.9400085626395 321.538044875905 751.0809481599549 319.54475628530093L751.0809481599549 319.54475628530093L759.0138340659952 316.786367023556L763.32255889821 291.09509185577076Q765.0138340659952 290.16891735912645 768.7990689653241 289.8467697081197Q772.6044380928408 289.54475628530093 777.0138340659952 290.1487831309385Q781.4433642673375 290.7326757483882 784.8460488310959 292.58502474167676L784.8460488310959 292.58502474167676L784.060813931767 312.4776421913412L799.7856461465321 309.29643413764995Q802.6849750055925 314.1689173591265 802.7453776901563 318.6991187014084Q802.8259146029079 323.2293200436903 801.7185320525724 326.81321266113986Q800.6312837304247 330.37697105040166 799.8460488310959 332.4306623255695L799.8460488310959 332.4306623255695Q796.584303864653 332.7125415202003 792.0339682941831 332.99442071483116Q787.4634984955254 333.276299909462 783.3561159451899 333.41723950677743L783.3561159451899 333.41723950677743L783.4970555425052 370.86690393630766L798.7789347371362 358.2628770906701L807.7789347371362 368.24945427187816Q806.7923575559281 370.86690393630766 803.9534313814314 375.19576299671036Q801.1145052069348 379.50448782892516 797.2688676230422 383.9340180302674Q793.4030958109616 388.34341400342174 789.3359817170019 391.36354823160974Q785.2688676230422 394.36354823160974 781.80578037472 394.36354823160974ZM854.7722233277402 394.36354823160974L854.7722233277402 394.36354823160974Q854.9936998378073 394.36354823160974 852.4366528579415 394.12193749335466Q849.8997401062636 393.8803267550996 845.812491784116 393.41723950677743Q841.7453776901564 392.9541522584553 837.1547736633106 392.4306623255695Q832.5440354082771 391.88703816449555 828.4769213143173 391.4239509161735Q824.4098072203576 390.98099789603924 821.8930286968678 390.6588502450325Q819.3762501733778 390.3367025940258 819.5171897706932 390.3367025940258L819.5171897706932 390.3367025940258Q816.3359817170019 384.73938715778417 815.4903441331094 380.1689173591265Q814.6447065492167 375.6185817886566 815.1279280257268 372.1353603121466Q815.6312837304247 368.67227306382443 816.6178609116328 366.41723950677743Q817.6044380928408 364.14207172154255 818.0473911129751 363.0749576275828L818.0473911129751 363.0749576275828Q826.6648407774046 363.7192529295963 834.6983978243844 367.4038166879855Q842.7520890995522 371.08838044637474 849.6178609116328 375.75952138597216L849.6178609116328 375.75952138597216L853.8460488310959 373.9877093054352Q854.4903441331094 370.8065012517439 854.7722233277402 367.32327977523386Q855.0541025223711 363.8601925269117 854.1480622539146 360.8199240705358L854.1480622539146 360.8199240705358Q850.7453776901564 359.8937495738916 845.087659569351 357.37697105040166Q839.4098072203576 354.8803267550996 833.2487333948543 351.4776421913412Q827.1077937975388 348.0749576275828 822.2151763478744 344.47093078194524Q817.32255889821 340.8467697081198 815.570881045861 337.8065012517439L815.570881045861 337.8065012517439Q814.9265857438476 335.4105280973815 814.4634984955254 331.16220594973055Q814.0004112472033 326.9138838020795 813.6782635961965 322.0011321242271Q813.3762501733778 317.06824621818686 813.074236750559 312.4977764195292Q812.7923575559281 307.9474408490593 812.4500756767334 304.9071723926835L812.4500756767334 304.9071723926835Q817.5440354082771 296.6924072920124 824.0272568847871 291.69911870140834Q830.4903441331094 286.7058301108043 838.4232300391495 283.3031455470459L838.4232300391495 283.3031455470459Q841.0406797035791 284.0883804463748 844.2621562136462 285.63871601684457Q847.4836327237133 287.2091858155023 850.3829615827738 288.7595213859721Q853.2822904418342 290.3098569564419 854.7118206431765 291.01455494301905L854.7118206431765 291.01455494301905L877.3628273545858 289.96757507724726Q879.0541025223711 296.6924072920124 878.4098072203576 302.3903938691936Q877.7856461465321 308.0883804463748 875.9131629250555 312.43737373496543Q874.0205454753911 316.786367023556 871.8259146029079 319.48435360073717Q869.6312837304247 322.16220594973055 868.1614850727067 322.88703816449566L868.1614850727067 322.88703816449566Q864.9601427908274 322.16220594973055 860.1480622539148 320.1487831309385Q855.3359817170019 318.1353603121466 850.2017535290825 314.9138838020795Q845.087659569351 311.69240729201243 840.7588005089483 307.44408514436134L840.7588005089483 307.44408514436134L839.832626012304 307.44408514436134L837.1547736633106 322.303145547046Q840.0541025223711 323.9340180302674 845.5104783612971 327.6185817886566Q850.9467199720355 331.303145547046 857.2890018512301 336.0749576275828Q863.6312837304247 340.8467697081198 869.2084649384785 345.96086366785124Q874.8057803747201 351.05482339939493 877.8460488310959 355.5850247416768L877.8460488310959 355.5850247416768Q878.2084649384785 358.9675750772473 877.32255889821 364.041400580603Q876.4366528579416 369.0950918557708 875.2285991666663 373.8467697081198Q874.0205454753911 378.57831333228086 873.2554448042503 381.05482339939493L873.2554448042503 381.05482339939493Q869.2084649384785 385.1018032651668 864.7990689653241 388.56489051348893Q860.3695387639817 392.0279777618111 854.7722233277402 394.36354823160974ZM908.6514179586127 394.36354823160974L908.6514179586127 394.36354823160974Q903.3963844015657 394.36354823160974 897.9601427908274 392.85348111751574Q892.5037669519013 391.32327977523386 889.8057803747201 388.283011318858L889.8057803747201 388.283011318858Q890.812491784116 382.54475628530093 891.557458227069 378.8601925269117Q892.2822904418341 375.19576299671036 893.067525341163 372.4575079631533Q893.8527602404918 369.73938715778417 894.7789347371362 366.9004609832876L894.7789347371362 366.9004609832876Q894.7789347371362 366.8400582987238 894.7990689653241 366.8400582987238Q894.8393374216998 366.8400582987238 894.8393374216998 366.75952138597216L894.8393374216998 366.75952138597216Q893.8527602404918 364.70583011080436 892.5440354082771 358.7662327953681Q891.2353105760624 352.8266354799319 889.8460488310959 344.67227306382443Q888.4769213143175 336.538044875905 887.1883307102905 327.7192529295963Q885.9198743344516 318.9205952114755 884.8527602404918 310.8870381644956Q883.8057803747201 302.8534811175157 883.2017535290825 297.15549454033453Q882.5977266834449 291.4575079631533 882.5977266834449 289.7460985671802L882.5977266834449 289.7460985671802Q882.5977266834449 289.54475628530093 882.6379951398208 289.4038166879855Q882.6581293680086 289.2628770906701 882.6581293680086 289.1823401779184L882.6581293680086 289.1823401779184Q885.9198743344516 285.0145549430191 892.1413508445187 281.8534811175157Q898.3829615827738 278.71254152020026 904.7453776901564 278.71254152020026L904.7453776901564 278.71254152020026Q907.8661830592838 278.71254152020026 910.7051092337804 279.4776421913412Q913.5239011800892 280.2628770906701 915.9400085626395 282.11522608395865L915.9400085626395 282.11522608395865Q915.6581293680086 300.0145549430191 913.7051092337804 318.6588502450325Q911.7520890995522 337.32327977523386 910.060813931767 356.28972272825393L910.060813931767 356.28972272825393L910.9869884284113 356.49106501013324L911.2688676230422 356.5716019228849Q914.8728944686798 344.9541522584553 917.8728944686798 333.3568368222138Q920.8930286968678 321.73938715778417 925.5641696364651 310.48435360073717L925.5641696364651 310.48435360073717Q926.6916864149885 310.2024744061063 929.2084649384784 309.73938715778417Q931.7252434619684 309.29643413764995 934.7655119183443 309.29643413764995L934.7655119183443 309.29643413764995Q938.7319548713643 309.29643413764995 945.6581293680086 311.51119923832107Q952.6044380928408 313.7460985671801 959.7520890995523 319.48435360073717L959.7520890995523 319.48435360073717Q959.7520890995523 324.01455494301905 958.8661830592839 330.3367025940258Q957.9802770190154 336.6789844732204 956.4299414485456 343.8266354799319Q954.8594716498878 350.9742864866433 952.7856461465321 358.021266352415Q950.6916864149885 365.06824621818686 948.2755790324381 370.9474408490593L948.2755790324381 370.9474408490593L960.315847488814 364.6454274262406L966.6178609116328 373.2024744061063Q965.1279280257268 377.7326757483882 962.087659569351 382.6454274262406Q959.0473911129751 387.57831333228086 955.1413508445187 390.98099789603924Q951.2554448042503 394.36354823160974 947.1480622539146 394.36354823160974L947.1480622539146 394.36354823160974Q943.825914602908 394.36354823160974 940.0809481599549 392.49106501013324Q936.3158474888139 390.6185817886566 933.6983978243845 387.8601925269117L933.6983978243845 387.8601925269117Q929.1077937975389 383.048111989999 929.3896729921696 377.30985695644193L929.3896729921696 377.30985695644193L931.1614850727067 338.30985695644193L929.2487333948543 337.6655616544285Q925.7655119183443 345.23603145308624 922.3426931263979 352.4642193725493Q918.8997401062637 359.69240729201243 914.8728944686798 367.4642193725493L914.8728944686798 367.4642193725493Q916.6447065492167 372.6387160168446 918.3359817170019 378.37697105040166Q920.047391112975 384.1152260839587 920.812491784116 391.2628770906701L920.812491784116 391.2628770906701Q918.4769213143175 392.9541522584553 915.2957132606261 393.6588502450325Q912.1145052069348 394.36354823160974 908.6514179586127 394.36354823160974ZM1007.2487333948543 394.36354823160974L1007.2487333948543 394.36354823160974Q1003.7051092337804 394.021266352415 999.1145052069348 392.99442071483116Q994.5037669519013 391.9675750772473 989.8728944686798 390.43737373496543Q985.2218877572705 388.92730662087143 981.4165186297537 387.0749576275828Q977.5910152740489 385.2427428624822 975.6782635961965 383.3299911846298L975.6782635961965 383.3299911846298Q973.1212166163308 367.12193749335466 971.6715521868006 351.75952138597216Q970.2218877572705 336.39710527858955 972.4165186297537 321.73938715778417L972.4165186297537 321.73938715778417Q973.9668542002235 319.7662327953681 978.0138340659952 317.49106501013324Q982.0406797035791 315.23603145308624 987.0742367505591 313.14207172154255Q992.087659569351 311.0481119899989 996.6983978243845 309.5783133322808Q1001.3091360794181 308.0883804463748 1003.9869884284113 307.72596433899224L1003.9869884284113 307.72596433899224Q1009.9265857438476 308.289722728254 1016.6312837304247 310.52462205711305Q1023.315847488814 312.75952138597216 1029.114505206935 316.041400580603Q1034.9131629250555 319.34341400342174 1038.033968294183 323.08838044637474L1038.033968294183 323.08838044637474Q1038.7386662807603 326.26958850006605 1038.9601427908274 329.7729442047641Q1039.161485072707 333.276299909462 1039.161485072707 339.23603145308624L1039.161485072707 339.23603145308624Q1039.161485072707 346.2427428624822 1038.3158474888141 354.43737373496543Q1037.4702099049214 362.65213883563655 1036.2017535290825 369.94072943966336Q1034.9131629250555 377.24945427187816 1033.7252434619686 381.6185817886566L1033.7252434619686 381.6185817886566Q1032.3762501733777 383.1890515873144 1028.7722233277404 385.4440851443614Q1025.1480622539148 387.7192529295963 1022.1077937975389 389.26958850006605L1022.1077937975389 389.26958850006605Q1017.577592455257 391.54475628530093 1014.1547736633106 392.7729442047641Q1010.7118206431765 394.021266352415 1007.2487333948543 394.36354823160974ZM1008.7990689653241 377.3903938691936L1008.7990689653241 377.3903938691936L1012.7051092337804 374.69240729201243Q1013.0473911129751 370.8065012517439 1013.1480622539148 366.8601925269117Q1013.2688676230422 362.9340180302674 1013.2688676230422 358.9675750772473L1013.2688676230422 358.9675750772473Q1013.2688676230422 353.5917361510728 1012.9869884284113 348.01455494301905Q1012.7051092337804 342.41723950677743 1012.060813931767 336.3165683658379L1012.060813931767 336.3165683658379L1001.1480622539148 331.86690393630766L996.9198743344516 333.9205952114755Q996.0541025223711 342.41723950677743 996.0541025223711 350.9742864866433L996.0541025223711 350.9742864866433Q996.0541025223711 356.2091858155023 996.315847488814 361.56489051348893Q996.557458227069 366.9004609832876 997.060813931767 372.276299909462L997.060813931767 372.276299909462Q999.2554448042503 373.70583011080436 1002.1749078914986 375.1554945403345Q1005.1145052069348 376.6051589698647 1008.7990689653241 377.3903938691936ZM1071.7990689653243 423.96086366785136L1071.7990689653243 423.96086366785136Q1069.0406797035794 423.96086366785136 1066.101082388143 422.61187037926067Q1063.161485072707 421.2628770906701 1060.8259146029081 419.63200460744866L1060.8259146029081 419.63200460744866Q1058.1480622539148 417.79978984234793 1056.4366528579417 415.786367023556Q1054.7453776901566 413.7729442047641 1054.523901180089 409.021266352415L1054.523901180089 409.021266352415L1052.6916864149885 356.7125415202003Q1051.4232300391495 351.6789844732204 1050.134639435123 345.81992407053593Q1048.8661830592841 339.94072943966336 1047.7386662807603 334.303145547046Q1046.611149502237 328.68569588261636 1045.9265857438477 324.43737373496543Q1045.2621562136464 320.1890515873144 1045.2621562136464 318.55817910409297L1045.2621562136464 318.55817910409297L1045.2621562136464 317.85348111751574Q1046.9534313814315 315.01455494301905 1050.3561159451901 313.0816690369788Q1053.7588005089483 311.1286489027506 1057.8661830592837 310.14207172154255Q1061.9534313814315 309.1353603121466 1065.7789347371363 309.1353603121466L1065.7789347371363 309.1353603121466Q1069.101082388143 309.1353603121466 1071.7990689653243 309.8601925269117Q1074.4970555425052 310.5648905134889 1076.1279280257268 312.05482339939493L1076.1279280257268 312.05482339939493L1070.9534313814315 355.86690393630766L1071.1547736633106 355.92730662087143L1087.523901180089 310.48435360073717Q1088.7118206431765 310.2024744061063 1090.4433642673375 309.6789844732204Q1092.1950421196866 309.1353603121466 1095.2353105760626 309.1353603121466L1095.2353105760626 309.1353603121466Q1097.9131629250555 309.1353603121466 1102.2420219854585 310.2024744061063Q1106.5507468176734 311.26958850006605 1111.403095810962 313.52462205711305Q1116.2554448042506 315.79978984234793 1120.5037669519015 319.48435360073717L1120.5037669519015 319.48435360073717Q1120.2822904418344 330.5179106477171 1118.9131629250555 341.8736153457036Q1117.523901180089 353.24945427187816 1114.7252434619686 365.85348111751574Q1111.9265857438477 378.43737373496543 1107.3963844015657 393.3165683658379L1107.3963844015657 393.3165683658379Q1105.7856461465321 393.79978984234793 1104.033968294183 394.0816690369788Q1102.302424670022 394.36354823160974 1100.4702099049214 394.36354823160974L1100.4702099049214 394.36354823160974Q1092.8997401062638 394.36354823160974 1086.054102522371 392.4306623255695Q1079.2285991666663 390.4776421913412 1076.0473911129752 388.786367023556L1076.0473911129752 388.786367023556Q1075.6849750055926 391.7460985671801 1075.101082388143 395.1487831309385Q1074.4970555425052 398.5514676946969 1073.631283730425 402.29643413765L1073.631283730425 402.29643413765L1087.2218877572705 402.29643413765L1089.9198743344518 413.83334688932786Q1088.2890018512303 416.30985695644193 1085.2084649384788 418.6454274262406Q1082.1279280257268 420.98099789603924 1078.523901180089 422.47093078194524Q1074.9198743344518 423.96086366785136 1071.7990689653243 423.96086366785136ZM1090.7051092337806 376.7460985671801L1090.7051092337806 376.7460985671801Q1091.1279280257268 372.7192529295963 1091.5104783612974 367.4642193725493Q1091.9131629250555 362.2293200436903 1092.1950421196866 356.67227306382443Q1092.4769213143172 351.1152260839587 1092.6379951398208 346.2024744061063Q1092.8192031935118 341.28972272825405 1092.8997401062638 337.9474408490593L1092.8997401062638 337.9474408490593L1090.9869884284112 337.3836824597976Q1089.4165186297537 340.50448782892516 1087.1614850727065 345.21589722489824Q1084.8863172874717 349.90717239268355 1082.5306125894854 354.94072943966336Q1080.1547736633106 359.9742864866433 1078.2017535290825 364.1018032651668Q1076.2688676230423 368.24945427187816 1075.403095810962 370.303145547046L1075.403095810962 370.303145547046Q1077.3963844015657 371.9340180302674 1080.3359817170021 373.3836824597976Q1083.2755790324381 374.83334688932786 1086.1749078914986 375.7192529295963Q1089.074236750559 376.6051589698647 1090.7051092337806 376.7460985671801Z " fill="#e1a2a1" transform="matrix(0.7808987885773726,0,0,0.7808987885773726,0,27.496889509155864)"/></g></svg>